<?xml version="1.0" encoding="utf-8"?>
<!-- Generator: Adobe Illustrator 22.1.0, SVG Export Plug-In . SVG Version: 6.00 Build 0)  -->
<svg version="1.1" id="Layer_1" xmlns="http://www.w3.org/2000/svg" xmlns:xlink="http://www.w3.org/1999/xlink" x="0px" y="0px"
	 viewBox="0 0 144 144" style="enable-background:new 0 0 144 144;" xml:space="preserve">
<style type="text/css">
	.st0{fill:none;stroke:#000000;stroke-width:7;stroke-miterlimit:10;}
</style>
<rect x="0" y="58.5" transform="matrix(0.7285 0.6851 -0.6851 0.7285 68.8902 -29.7925)" class="st0" width="144" height="27"/>
<rect x="86.2" y="27" transform="matrix(0.7285 0.6851 -0.6851 0.7285 58.3007 -52.3589)" class="st0" width="18" height="40.7"/>
<rect x="41.4" y="77" transform="matrix(0.7285 0.6851 -0.6851 0.7285 78.7512 -8.7784)" class="st0" width="18" height="36"/>
<rect x="13.9" y="116.2" transform="matrix(0.7285 0.6851 -0.6851 0.7285 92.0007 18.3185)" class="st0" width="18" height="18"/>
<polygon class="st0" points="131,9.4 111.3,17.2 124.4,29.5 "/>
<line class="st0" x1="23.4" y1="44.9" x2="32.7" y2="35"/>
<line class="st0" x1="49.7" y1="69.5" x2="58.9" y2="59.7"/>
<line class="st0" x1="75.9" y1="94.2" x2="85.1" y2="84.3"/>
<line class="st0" x1="36.6" y1="57.2" x2="42.7" y2="50.6"/>
<line class="st0" x1="62.8" y1="81.8" x2="68.9" y2="75.3"/>
<line class="st0" x1="89" y1="106.5" x2="95.2" y2="100"/>
<line class="st0" x1="102.1" y1="118.8" x2="111.4" y2="109"/>
</svg>
