<?xml version="1.0" standalone="no"?>
<!DOCTYPE svg PUBLIC "-//W3C//DTD SVG 20010904//EN"
 "http://www.w3.org/TR/2001/REC-SVG-20010904/DTD/svg10.dtd">
<svg version="1.0" xmlns="http://www.w3.org/2000/svg"
 width="640.000000pt" height="1280.000000pt" viewBox="0 0 640.000000 1280.000000"
 preserveAspectRatio="xMidYMid meet">
<g transform="translate(0.000000,1280.000000) scale(0.100000,-0.100000)"
fill="#000000" stroke="none">
<path d="M3690 12784 c-469 -101 -995 -479 -1415 -1019 -707 -907 -1152 -2292
-1299 -4050 -39 -455 -49 -745 -50 -1360 0 -727 18 -1107 84 -1695 203 -1810
755 -3201 1596 -4020 151 -147 254 -232 418 -341 245 -165 555 -289 722 -289
l44 0 0 1795 0 1795 -35 0 c-54 0 -136 20 -190 47 -78 39 -130 87 -185 171
-133 202 -211 542 -285 1236 -73 685 -80 820 -80 1506 0 692 12 916 76 1455
88 730 277 1061 629 1101 l60 7 0 1838 c0 1465 -3 1839 -12 1838 -7 0 -42 -7
-78 -15z"/>
<path d="M4060 10960 l0 -1841 558 3 557 3 66 32 c126 62 209 177 229 318 11
78 12 1758 1 2555 l-6 485 -27 58 c-49 104 -156 190 -270 217 -25 5 -261 10
-575 10 l-533 0 0 -1840z"/>
<path d="M4060 1800 l0 -1800 525 0 c350 0 542 4 577 11 171 37 283 166 309
359 9 63 10 455 6 1495 -5 1192 -8 1417 -21 1458 -33 109 -122 204 -233 249
-58 23 -59 23 -610 26 l-553 3 0 -1801z"/>
</g>
</svg>
